<?xml version="1.0" standalone="yes"?>
<!DOCTYPE svg PUBLIC "-//W3C//DTD SVG 20010904//EN"
	"http://www.w3.org/TR/2001/REC-SVG-20010904/DTD/svg10.dtd">
<svg xmlns="http://www.w3.org/2000/svg" 
	xmlns:xlink="http://www.w3.org/1999/xlink"
	width="300" height="300" viewBox="0 0 300 300">
<defs>
	<g id="m" style="stroke: none; fill:black">
	<circle cx="6" cy="6" r="2"/>
	<g id="r9"><g id="r4"><g id="r2"><g id="r">
	<g id="h4"><g id="h2"><g id="h">
	<circle cx="38" cy="6" r="2"/>
	<path d="m 6 6 7 0 1-2 2 4 3-4 3 4 3-4 3 4 1.5-2 7 0" stroke-width="1" stroke="black" fill="none"/></g>
	<use xlink:href="#h"  transform="translate(32,0)"/></g>

	<use xlink:href="#h2" transform="translate(64,0)"/></g>
	<use xlink:href="#h4" transform="translate(128,0)"/>
	<use xlink:href="#h"  transform="translate(256,0)"/></g>
	<use xlink:href="#r"  transform="translate(0,32)"/></g>
	<use xlink:href="#r2" transform="translate(0,64)"/></g>
	<use xlink:href="#r4" transform="translate(0,128)"/>
	<use xlink:href="#r2" transform="translate(0,256)"/></g>
	<use xlink:href="#r9" transform="translate(300,0) rotate(90)"/></g>
	<g id="t">
	<path d="M 15.27,0 H 12.61 L 11.36,-3.89 H 3.92 L 2.67,0 H 0.14 L 6.08,-17.88 H 9.41 Z M 10.67,-6.08 7.64,-15.62 4.62,-6.08 Z"
		transform="translate(42,33)"/>
	<path d="M 7.28,-17.88 Q 13.25,-17.88 13.25,-13.52 13.25,-12.08 12.56,-11.03 11.88,-10 10.31,-9.48 11.03,-9.36 11.67,-9.03 12.33,-8.7 12.81,-8.17 13.31,-7.66 13.59,-6.94 13.89,-6.23 13.89,-5.34 13.89,-4.06 13.39,-3.06 12.89,-2.08 11.97,-1.39 11.05,-0.72 9.73,-0.36 8.44,0 6.84,0 H 2.16 V -17.88 Z M 7.03,-10.23 Q 7.86,-10.23 8.53,-10.41 9.22,-10.58 9.7,-10.95 T 10.45,-11.88 10.72,-13.19 Q 10.72,-13.73 10.55,-14.22 10.39,-14.72 9.98,-15.06 T 8.88,-15.61 7.11,-15.81 H 4.59 V -10.23 Z M 7.17,-2.05 Q 9.25,-2.05 10.28,-2.83 T 11.31,-5.27 Q 11.31,-5.95 11.02,-6.5 10.73,-7.05 10.19,-7.42 T 8.84,-8 Q 8.06,-8.2 7.08,-8.2 H 4.59 V -2.05 Z"
		transform="translate(233,220)"/></g>
	<filter id="shadow">
		<feGaussianBlur in="SourceAlpha"
				stdDeviation="1" result="blur1"/>
		<feOffset in="blur1" result="blur" dx="1" dy="1"/>
		<feMerge>
			<feMergeNode in="blur"/>
			<feMergeNode in="SourceGraphic"/>
		</feMerge>
	</filter>
</defs>

<use xlink:href="#m"/>
<g style="fill:red" filter="url(#shadow)">
<circle cx="38" cy="38" r="4"/>
<circle cx="230" cy="198" r="4"/>
<use xlink:href="#t"/>
</g>
</svg>

