<?xml version="1.0" encoding="UTF-8"?>
<svg xmlns="http://www.w3.org/2000/svg" xmlns:xlink="http://www.w3.org/1999/xlink" width="400pt" height="400pt" viewBox="0 0 400 400" version="1.1">
<defs>
<clipPath id="clip1">
  <path d="M 392.726562 307.109375 C 392.726562 288.851562 377.925781 274.050781 359.667969 274.050781 C 341.410156 274.050781 326.609375 288.851562 326.609375 307.109375 C 326.609375 325.367188 341.410156 340.167969 359.667969 340.167969 C 377.925781 340.167969 392.726562 325.367188 392.726562 307.109375 C 392.726562 307.109375 392.726562 307.109375 392.726562 307.109375 "/>
</clipPath>
<clipPath id="clip2">
  <path d="M 293.554688 207.933594 C 293.554688 134.902344 234.351562 75.703125 161.324219 75.703125 C 88.292969 75.703125 29.09375 134.90625 29.09375 207.933594 C 29.09375 280.964844 88.296875 340.164062 161.324219 340.164062 C 234.355469 340.164062 293.554688 280.960938 293.554688 207.933594 C 293.554688 207.933594 293.554688 207.933594 293.554688 207.933594 "/>
</clipPath>
</defs>
<g id="surface1">
<g clip-path="url(#clip1)" clip-rule="nonzero">
<path style=" stroke:none;fill-rule:nonzero;fill:rgb(0%,0%,0%);fill-opacity:1;" d="M 392.726562 274.050781 L 359.667969 274.050781 L 359.667969 340.167969 L 392.726562 340.167969 Z M 392.726562 274.050781 "/>
<path style=" stroke:none;fill-rule:nonzero;fill:rgb(100%,100%,100%);fill-opacity:1;" d="M 359.667969 274.050781 L 326.609375 274.050781 L 326.609375 340.167969 L 359.667969 340.167969 Z M 359.667969 274.050781 "/>
</g>
<path style=" stroke:none;fill-rule:nonzero;fill:rgb(0%,0%,0%);fill-opacity:1;" d="M 376.199219 323.636719 C 376.199219 332.765625 368.796875 340.164062 359.667969 340.164062 C 350.539062 340.164062 343.140625 332.765625 343.140625 323.636719 C 343.140625 314.507812 350.539062 307.109375 359.667969 307.109375 C 368.796875 307.109375 376.199219 314.507812 376.199219 323.636719 Z M 376.199219 323.636719 "/>
<path style=" stroke:none;fill-rule:nonzero;fill:rgb(100%,100%,100%);fill-opacity:1;" d="M 365.179688 323.636719 C 365.179688 326.679688 362.710938 329.144531 359.667969 329.144531 C 356.625 329.144531 354.160156 326.679688 354.160156 323.636719 C 354.160156 320.59375 356.625 318.125 359.667969 318.125 C 362.710938 318.125 365.179688 320.59375 365.179688 323.636719 Z M 365.179688 323.636719 "/>
<path style=" stroke:none;fill-rule:nonzero;fill:rgb(100%,100%,100%);fill-opacity:1;" d="M 376.199219 290.578125 C 376.199219 299.707031 368.796875 307.109375 359.667969 307.109375 C 350.539062 307.109375 343.140625 299.707031 343.140625 290.578125 C 343.140625 281.449219 350.539062 274.050781 359.667969 274.050781 C 368.796875 274.050781 376.199219 281.449219 376.199219 290.578125 Z M 376.199219 290.578125 "/>
<path style=" stroke:none;fill-rule:nonzero;fill:rgb(0%,0%,0%);fill-opacity:1;" d="M 365.179688 290.578125 C 365.179688 293.621094 362.710938 296.089844 359.667969 296.089844 C 356.625 296.089844 354.160156 293.621094 354.160156 290.578125 C 354.160156 287.535156 356.625 285.070312 359.667969 285.070312 C 362.710938 285.070312 365.179688 287.535156 365.179688 290.578125 Z M 365.179688 290.578125 "/>
<path style="fill:none;stroke-width:0.003;stroke-linecap:butt;stroke-linejoin:miter;stroke:rgb(0%,0%,0%);stroke-opacity:1;stroke-miterlimit:10;" d="M 0.274997 0.0750073 C 0.274997 0.00596997 0.219032 -0.0499955 0.149995 -0.0499955 C 0.0809572 -0.0499955 0.0249917 0.00596997 0.0249917 0.0750073 C 0.0249917 0.144045 0.0809572 0.20001 0.149995 0.20001 C 0.219032 0.20001 0.274997 0.144045 0.274997 0.0750073 C 0.274997 0.0750073 0.274997 0.0750073 0.274997 0.0750073 " transform="matrix(264.46281,0,0,264.46281,320,287.272727)"/>
<g clip-path="url(#clip2)" clip-rule="nonzero">
<path style=" stroke:none;fill-rule:nonzero;fill:rgb(0%,0%,0%);fill-opacity:1;" d="M 293.554688 75.703125 L 161.324219 75.703125 L 161.324219 340.164062 L 293.554688 340.164062 Z M 293.554688 75.703125 "/>
<path style=" stroke:none;fill-rule:nonzero;fill:rgb(100%,100%,100%);fill-opacity:1;" d="M 161.324219 75.703125 L 29.09375 75.703125 L 29.09375 340.164062 L 161.324219 340.164062 Z M 161.324219 75.703125 "/>
</g>
<path style=" stroke:none;fill-rule:nonzero;fill:rgb(0%,0%,0%);fill-opacity:1;" d="M 227.4375 274.050781 C 227.4375 310.5625 197.835938 340.164062 161.324219 340.164062 C 124.808594 340.164062 95.207031 310.5625 95.207031 274.050781 C 95.207031 237.535156 124.808594 207.933594 161.324219 207.933594 C 197.835938 207.933594 227.4375 237.535156 227.4375 274.050781 Z M 227.4375 274.050781 "/>
<path style=" stroke:none;fill-rule:nonzero;fill:rgb(100%,100%,100%);fill-opacity:1;" d="M 183.359375 274.050781 C 183.359375 286.222656 173.492188 296.089844 161.324219 296.089844 C 149.152344 296.089844 139.285156 286.222656 139.285156 274.050781 C 139.285156 261.878906 149.152344 252.011719 161.324219 252.011719 C 173.492188 252.011719 183.359375 261.878906 183.359375 274.050781 Z M 183.359375 274.050781 "/>
<path style=" stroke:none;fill-rule:nonzero;fill:rgb(100%,100%,100%);fill-opacity:1;" d="M 227.4375 141.816406 C 227.4375 178.332031 197.835938 207.933594 161.324219 207.933594 C 124.808594 207.933594 95.207031 178.332031 95.207031 141.816406 C 95.207031 105.304688 124.808594 75.703125 161.324219 75.703125 C 197.835938 75.703125 227.4375 105.304688 227.4375 141.816406 Z M 227.4375 141.816406 "/>
<path style=" stroke:none;fill-rule:nonzero;fill:rgb(0%,0%,0%);fill-opacity:1;" d="M 183.359375 141.816406 C 183.359375 153.988281 173.492188 163.855469 161.324219 163.855469 C 149.152344 163.855469 139.285156 153.988281 139.285156 141.816406 C 139.285156 129.648438 149.152344 119.78125 161.324219 119.78125 C 173.492188 119.78125 183.359375 129.648438 183.359375 141.816406 Z M 183.359375 141.816406 "/>
<path style="fill:none;stroke-width:0.003;stroke-linecap:butt;stroke-linejoin:miter;stroke:rgb(0%,0%,0%);stroke-opacity:1;stroke-miterlimit:10;" d="M -0.0999963 -0.300001 C -0.0999963 -0.576151 -0.323858 -0.799998 -0.599993 -0.799998 C -0.876142 -0.799998 -1.099989 -0.576136 -1.099989 -0.300001 C -1.099989 -0.0238517 -0.876127 0.199995 -0.599993 0.199995 C -0.323843 0.199995 -0.0999963 -0.0238665 -0.0999963 -0.300001 C -0.0999963 -0.300001 -0.0999963 -0.300001 -0.0999963 -0.300001 " transform="matrix(264.46281,0,0,264.46281,320,287.272727)"/>
</g>
</svg>
