<?xml version="1.0" encoding="UTF-8" standalone="no"?>
<svg id="svg2" xmlns:rdf="http://www.w3.org/1999/02/22-rdf-syntax-ns#" xmlns="http://www.w3.org/2000/svg" height="512" width="512" version="1.1" xmlns:cc="http://creativecommons.org/ns#" xmlns:dc="http://purl.org/dc/elements/1.1/">
 <metadata id="metadata90">
  <rdf:RDF>
   <cc:Work rdf:about="">
    <dc:format>image/svg+xml</dc:format>
    <dc:type rdf:resource="http://purl.org/dc/dcmitype/StillImage"/>
    <dc:title/>
   </cc:Work>
  </rdf:RDF>
 </metadata>
 <g id="g4" transform="translate(81.92,395.52)">
  <line id="line6" stroke-width="1.5" y2="-5.1769" y1="-4.992" stroke="#3333ff" x2="45.511"/>
  <line id="line8" stroke-width="1.5" y2="-58.055" y1="-5.1769" stroke="#3333ff" x2="91.022" x1="45.511"/>
  <line id="line10" stroke-width="1.5" y2="-70.443" y1="-58.055" stroke="#3333ff" x2="136.53" x1="91.022"/>
  <line id="line12" stroke-width="1.5" y2="-107.24" y1="-70.443" stroke="#3333ff" x2="182.04" x1="136.53"/>
  <line id="line14" stroke-width="1.5" y2="-140.89" y1="-107.24" stroke="#3333ff" x2="227.56" x1="182.04"/>
  <line id="line16" stroke-width="1.5" y2="-185.81" y1="-140.89" stroke="#3333ff" x2="273.07" x1="227.56"/>
  <line id="line18" stroke-width="1.5" y2="-240.36" y1="-185.81" stroke="#3333ff" x2="318.58" x1="273.07"/>
  <line id="line20" stroke-width="1.5" y2="-276.04" y1="-240.36" stroke="#3333ff" x2="364.09" x1="318.58"/>
  <line id="line22" stroke-width="1.5" y2="-332.8" y1="-276.04" stroke="#3333ff" x2="409.6" x1="364.09"/>
  <line id="line24" stroke-width="1" y2="4.48" x2="0" stroke="black" y1="-4.48"/>
  <g id="text26" style="text-anchor:middle;" font-size="12px">
   <path id="path3095" d="m-2.8418,27.204c0-1.0156,0.10449-1.833,0.31348-2.4522,0.20898-0.6191,0.51953-1.0966,0.93164-1.4326,0.41211-0.3359,0.93066-0.5039,1.5557-0.5039,0.46093,0,0.86523,0.093,1.2129,0.2783,0.34765,0.1856,0.63476,0.4532,0.86132,0.8028s0.40429,0.7754,0.53321,1.2773c0.1289,0.502,0.19335,1.1787,0.19336,2.0303-0.00001,1.0078-0.10353,1.8213-0.31055,2.4404-0.20704,0.6191-0.51661,1.0977-0.92871,1.4355-0.41212,0.3379-0.93262,0.5069-1.5615,0.5069-0.82813,0-1.4785-0.2969-1.9512-0.8906-0.5664-0.713-0.8496-1.877-0.8496-3.49zm1.084,0c0,1.4101,0.16503,2.3486,0.49511,2.8154s0.73731,0.7002,1.2217,0.7002c0.48437,0,0.8916-0.2344,1.2217-0.7031,0.33008-0.4688,0.49512-1.4063,0.49512-2.8125,0-1.4141-0.16504-2.3535-0.49512-2.8184-0.33008-0.4648-0.74121-0.6972-1.2334-0.6973-0.48438,0.0001-0.8711,0.2051-1.1602,0.6153-0.36328,0.5234-0.54492,1.4902-0.54492,2.9004z"/>
  </g>
  <line id="line28" stroke-width="1" y2="4.48" x2="45.511" stroke="black" y1="-4.48" x1="45.511"/>
  <g id="text30" style="text-anchor:middle;" font-size="12px">
   <path id="path3092" d="m46.642,31.44-1.0547,0,0-6.7207c-0.2539,0.2422-0.5869,0.4844-0.999,0.7266-0.4122,0.2422-0.7823,0.4238-1.1104,0.5449v-1.0195c0.5899-0.2774,1.1055-0.6133,1.5469-1.0079,0.4414-0.3945,0.7539-0.7773,0.9375-1.1484h0.6797z"/>
  </g>
  <line id="line32" stroke-width="1" y2="4.48" x2="91.022" stroke="black" y1="-4.48" x1="91.022"/>
  <g id="text34" style="text-anchor:middle;" font-size="12px">
   <path id="path3089" d="m93.723,30.426,0,1.0137-5.6777,0c-0.01-0.2539,0.033-0.498,0.123-0.7324,0.1445-0.3867,0.376-0.7676,0.6943-1.1426,0.3184-0.375,0.7784-0.8086,1.3799-1.3008,0.9336-0.7656,1.5645-1.372,1.8926-1.8193s0.4922-0.8701,0.4922-1.2686c0-0.4179-0.1494-0.7705-0.4482-1.0576-0.2989-0.2871-0.6885-0.4306-1.169-0.4307-0.5078,0.0001-0.9141,0.1524-1.2187,0.4571-0.3047,0.3047-0.459,0.7265-0.4629,1.2656l-1.084-0.1113c0.074-0.8086,0.3535-1.4248,0.8379-1.8487,0.4843-0.4238,1.1347-0.6357,1.9511-0.6357,0.8243,0,1.4766,0.2285,1.9571,0.6855,0.4804,0.4571,0.7207,1.0235,0.7207,1.6993,0,0.3437-0.07,0.6816-0.211,1.0136-0.1406,0.3321-0.374,0.6817-0.7002,1.0489-0.3261,0.3672-0.8681,0.8711-1.6259,1.5117-0.6328,0.5312-1.0391,0.8916-1.2188,1.081-0.1797,0.1895-0.3281,0.3799-0.4453,0.5713z"/>
  </g>
  <line id="line36" stroke-width="1" y2="4.48" x2="136.53" stroke="black" y1="-4.48" x1="136.53"/>
  <g id="text38" style="text-anchor:middle;" font-size="12px">
   <path id="path3086" d="m133.7,29.172,1.055-0.1406c0.121,0.5977,0.327,1.0283,0.618,1.292s0.646,0.3955,1.064,0.3955c0.496,0,0.915-0.1719,1.257-0.5156,0.341-0.3438,0.512-0.7696,0.512-1.2774,0-0.4843-0.158-0.8838-0.474-1.1982-0.317-0.3145-0.719-0.4717-1.207-0.4717-0.2,0-0.448,0.039-0.745,0.1172l0.118-0.9258c0.07,0.01,0.127,0.012,0.17,0.012,0.449,0,0.853-0.1172,1.212-0.3515,0.36-0.2344,0.54-0.5957,0.54-1.084,0-0.3867-0.131-0.707-0.393-0.961-0.262-0.2539-0.6-0.3808-1.014-0.3808-0.41,0-0.752,0.1289-1.025,0.3867-0.274,0.2578-0.449,0.6445-0.527,1.1602l-1.055-0.1875c0.129-0.7071,0.422-1.2549,0.879-1.6436s1.025-0.583,1.705-0.583c0.469,0,0.9,0.1006,1.295,0.3018,0.394,0.2011,0.696,0.4756,0.905,0.8232,0.209,0.3477,0.314,0.7168,0.314,1.1074,0,0.3711-0.1,0.709-0.299,1.0137-0.2,0.3047-0.494,0.5469-0.885,0.7266,0.508,0.1171,0.902,0.3603,1.184,0.7294,0.281,0.3692,0.421,0.8311,0.421,1.3858,0,0.75-0.273,1.3857-0.82,1.9072s-1.238,0.7822-2.074,0.7822c-0.754,0-1.38-0.2246-1.878-0.6738s-0.782-1.0312-0.853-1.7461z"/>
  </g>
  <line id="line40" stroke-width="1" y2="4.48" x2="182.04" stroke="black" y1="-4.48" x1="182.04"/>
  <g id="text42" style="text-anchor:middle;" font-size="12px">
   <path id="path3083" d="m182.58,31.44,0-2.0566-3.727,0,0-0.9668,3.92-5.5664,0.861,0,0,5.5664,1.16,0,0,0.9668-1.16,0,0,2.0566zm0-3.0234,0-3.8731-2.69,3.8731z"/>
  </g>
  <line id="line44" stroke-width="1" y2="4.48" x2="227.56" stroke="black" y1="-4.48" x1="227.56"/>
  <g id="text46" style="text-anchor:middle;" font-size="12px">
   <path id="path3080" d="m224.71,29.19,1.107-0.094c0.08,0.539,0.273,0.9443,0.571,1.2158,0.299,0.2715,0.66,0.4072,1.082,0.4072,0.507,0,0.937-0.1914,1.289-0.5742,0.351-0.3828,0.527-0.8906,0.527-1.5235,0-0.6015-0.169-1.0761-0.507-1.4238-0.338-0.3476-0.78-0.5215-1.327-0.5215-0.34,0-0.647,0.077-0.92,0.2315-0.273,0.1543-0.488,0.3545-0.645,0.6006l-0.99-0.1289,0.832-4.4122h4.272v1.0079h-3.428l-0.463,2.3086c0.516-0.3594,1.057-0.5391,1.623-0.5391,0.75,0,1.383,0.2598,1.899,0.7793,0.515,0.5195,0.773,1.1875,0.773,2.0039,0,0.7773-0.226,1.4492-0.68,2.0156-0.55,0.6953-1.302,1.043-2.255,1.043-0.782,0-1.419-0.2188-1.914-0.6563-0.494-0.4375-0.776-1.0175-0.846-1.7402z"/>
  </g>
  <line id="line48" stroke-width="1" y2="4.48" x2="273.07" stroke="black" y1="-4.48" x1="273.07"/>
  <g id="text50" style="text-anchor:middle;" font-size="12px">
   <path id="path3077" d="m275.7,24.954-1.049,0.082c-0.09-0.4141-0.227-0.7148-0.399-0.9023-0.285-0.3008-0.636-0.4512-1.054-0.4512-0.336,0-0.631,0.094-0.885,0.2812-0.332,0.2422-0.594,0.5957-0.785,1.0606-0.192,0.4648-0.291,1.1269-0.299,1.9863,0.254-0.3867,0.564-0.6738,0.931-0.8613,0.368-0.1875,0.752-0.2813,1.155-0.2813,0.703,0,1.302,0.2588,1.796,0.7764s0.741,1.1865,0.741,2.0068c0,0.5391-0.116,1.0401-0.349,1.503-0.232,0.4629-0.552,0.8174-0.958,1.0634-0.406,0.2461-0.867,0.3692-1.383,0.3692-0.878,0-1.595-0.3233-2.15-0.9697-0.555-0.6465-0.832-1.712-0.832-3.1963,0-1.6602,0.307-2.8672,0.92-3.6211,0.535-0.6563,1.256-0.9844,2.162-0.9844,0.676,0,1.23,0.1895,1.661,0.5684,0.432,0.3789,0.691,0.9023,0.777,1.5703zm-4.307,3.7031c0,0.3633,0.08,0.7109,0.231,1.043,0.155,0.332,0.37,0.5849,0.648,0.7588,0.277,0.1738,0.568,0.2607,0.873,0.2607,0.445,0,0.828-0.1797,1.148-0.5391,0.321-0.3593,0.481-0.8476,0.481-1.4648,0-0.5938-0.158-1.0615-0.475-1.4033-0.316-0.3418-0.715-0.5127-1.195-0.5127-0.477,0-0.881,0.1709-1.213,0.5127s-0.498,0.79-0.498,1.3447z"/>
  </g>
  <line id="line52" stroke-width="1" y2="4.48" x2="318.58" stroke="black" y1="-4.48" x1="318.58"/>
  <g id="text54" style="text-anchor:middle;" font-size="12px">
   <path id="path3074" d="m315.81,23.975,0-1.0137,5.561,0,0,0.8203c-0.547,0.582-1.089,1.3555-1.626,2.3203-0.537,0.9649-0.952,1.957-1.245,2.9766-0.211,0.7187-0.346,1.5058-0.405,2.3613h-1.084c0.01-0.6758,0.145-1.4922,0.399-2.4492s0.618-1.8799,1.093-2.7686c0.474-0.8886,0.979-1.6377,1.514-2.247z"/>
  </g>
  <line id="line56" stroke-width="1" y2="4.48" x2="364.09" stroke="black" y1="-4.48" x1="364.09"/>
  <g id="text58" style="text-anchor:middle;" font-size="12px">
   <path id="path3071" d="m362.87,26.782c-0.437-0.1602-0.762-0.3887-0.973-0.6855-0.21-0.2969-0.316-0.6524-0.316-1.0665,0-0.6249,0.225-1.1503,0.674-1.5761s1.047-0.6387,1.793-0.6387c0.75,0,1.353,0.2178,1.81,0.6533,0.457,0.4356,0.686,0.9658,0.686,1.5908,0,0.3985-0.105,0.7452-0.314,1.0401-0.208,0.2949-0.526,0.5224-0.952,0.6826,0.528,0.1719,0.929,0.4492,1.204,0.832,0.276,0.3828,0.414,0.8399,0.414,1.3711,0,0.7344-0.26,1.3516-0.78,1.8516-0.519,0.5-1.203,0.75-2.051,0.75-0.847,0-1.531-0.251-2.05-0.7529-0.52-0.502-0.78-1.128-0.78-1.878,0-0.5586,0.142-1.0263,0.425-1.4033,0.283-0.3769,0.687-0.6338,1.21-0.7705zm-0.211-1.7871c0,0.4062,0.131,0.7383,0.393,0.9961s0.601,0.3867,1.019,0.3867c0.407,0,0.74-0.1279,0.999-0.3838,0.26-0.2558,0.39-0.5693,0.39-0.9404,0-0.3867-0.134-0.7119-0.401-0.9756-0.268-0.2637-0.601-0.3955-0.999-0.3955-0.403,0-0.737,0.1289-1.002,0.3867-0.266,0.2578-0.399,0.5664-0.399,0.9258zm-0.34,3.9668c0,0.3008,0.07,0.5918,0.214,0.873,0.143,0.2813,0.355,0.4991,0.636,0.6534,0.281,0.1542,0.584,0.2314,0.908,0.2314,0.504,0,0.92-0.1621,1.248-0.4863s0.492-0.7364,0.492-1.2364c0-0.5078-0.169-0.9277-0.506-1.2597-0.338-0.3321-0.761-0.4981-1.269-0.4981-0.496,0-0.907,0.1641-1.233,0.4922-0.327,0.3281-0.49,0.7383-0.49,1.2305z"/>
  </g>
  <line id="line60" stroke-width="1" y2="4.48" x2="409.6" stroke="black" y1="-4.48" x1="409.6"/>
  <g id="text62" style="text-anchor:middle;" font-size="12px">
   <path id="path3068" d="m406.92,29.454,1.014-0.094c0.09,0.4766,0.25,0.8223,0.492,1.0371,0.242,0.2149,0.553,0.3223,0.932,0.3223,0.324,0,0.608-0.074,0.852-0.2227,0.245-0.1484,0.445-0.3466,0.601-0.5947,0.156-0.248,0.287-0.583,0.393-1.0049,0.105-0.4218,0.158-0.8515,0.158-1.289v-0.211c-0.211,0.336-0.499,0.6084-0.864,0.8174-0.366,0.209-0.761,0.3135-1.187,0.3135-0.711,0-1.312-0.2578-1.805-0.7734-0.492-0.5157-0.738-1.1954-0.738-2.0391,0-0.8711,0.257-1.5723,0.771-2.1035,0.513-0.5313,1.157-0.7969,1.93-0.7969,0.559,0,1.07,0.1504,1.533,0.4512,0.462,0.3008,0.814,0.7295,1.054,1.2861,0.241,0.5567,0.361,1.3623,0.361,2.417,0,1.0977-0.119,1.9717-0.358,2.6221-0.238,0.6504-0.593,1.1455-1.063,1.4853-0.471,0.3399-1.023,0.5098-1.656,0.5098-0.671,0-1.22-0.1865-1.646-0.5596-0.426-0.373-0.682-0.8974-0.768-1.5732zm4.319-3.791c0-0.6055-0.161-1.086-0.484-1.4414-0.322-0.3555-0.71-0.5332-1.163-0.5333-0.468,0.0001-0.877,0.1915-1.224,0.5743-0.348,0.3828-0.522,0.8789-0.522,1.4882,0,0.5469,0.165,0.9913,0.495,1.3331s0.738,0.5127,1.222,0.5127c0.488,0,0.89-0.1709,1.204-0.5127,0.315-0.3418,0.472-0.8155,0.472-1.4209z"/>
  </g>
  <line id="line64" stroke-width="1" stroke="black" x2="4.48" x1="-4.48"/>
  <g id="text66" style="text-anchor:end;" font-size="12px">
   <path id="path3117" d="m-19.622-4.2363c0-1.0156,0.1045-1.833,0.3134-2.4522,0.209-0.61913,0.5196-1.0967,0.9317-1.4326,0.4121-0.33593,0.9306-0.5039,1.5556-0.50391,0.461,0.00001,0.8653,0.0928,1.2129,0.27832,0.3477,0.18556,0.6348,0.45313,0.8614,0.80273,0.2265,0.34962,0.4043,0.7754,0.5332,1.2774,0.1289,0.50196,0.1933,1.1787,0.1933,2.0303,0,1.0078-0.1035,1.8213-0.3105,2.4404-0.2071,0.61914-0.5166,1.0977-0.9287,1.4355-0.4121,0.33789-0.9327,0.50684-1.5616,0.50684-0.8281,0-1.4785-0.29687-1.9511-0.89062-0.5664-0.71484-0.8496-1.8789-0.8496-3.4922zm1.0839,0c0,1.4102,0.1651,2.3486,0.4952,2.8154,0.33,0.4668,0.7373,0.7002,1.2216,0.7002,0.4844,0.000001,0.8916-0.23437,1.2217-0.70313,0.3301-0.46875,0.4951-1.4062,0.4951-2.8125,0-1.414-0.165-2.3535-0.4951-2.8184-0.3301-0.46483-0.7412-0.69726-1.2334-0.69726-0.4844,0-0.8711,0.20508-1.1601,0.61523-0.3633,0.52345-0.545,1.4902-0.545,2.9004z"/>
  </g>
  <line id="line68" stroke-width="1" y2="-92.444" y1="-92.444" stroke="black" x2="4.48" x1="-4.48"/>
  <g id="text70" style="text-anchor:end;" font-size="12px">
   <path id="path3112" d="m-26.301-94.694,1.1074-0.094c0.082,0.5391,0.2725,0.9443,0.5713,1.2158s0.6592,0.4073,1.081,0.4073c0.5078,0,0.9375-0.1915,1.2891-0.5743s0.5273-0.8906,0.5273-1.5234c0-0.6016-0.1689-1.0762-0.5068-1.4238-0.3379-0.3477-0.7803-0.5215-1.3271-0.5215-0.3399,0-0.6465,0.077-0.92,0.2314-0.2734,0.1543-0.4882,0.3545-0.6445,0.6006l-0.9902-0.1289,0.832-4.412h4.2715v1.0077h-3.4277l-0.4629,2.3086c0.5156-0.3594,1.0566-0.539,1.623-0.5391,0.75,0.0001,1.3828,0.2598,1.8984,0.7793,0.5157,0.5196,0.7735,1.1875,0.7735,2.0039,0,0.7774-0.2266,1.4493-0.6797,2.0157-0.5508,0.6953-1.3027,1.0429-2.2559,1.0429-0.7812,0-1.4189-0.2187-1.913-0.6562-0.4942-0.4375-0.7764-1.0176-0.8467-1.7402z"/>
   <path id="path3114" d="m-19.622-96.681c0-1.0156,0.1045-1.833,0.3134-2.4521,0.209-0.6192,0.5196-1.0971,0.9317-1.4331,0.4121-0.335,0.9306-0.503,1.5556-0.503,0.461,0,0.8653,0.09,1.2129,0.278,0.3477,0.185,0.6348,0.453,0.8614,0.8026,0.2265,0.3496,0.4043,0.7754,0.5332,1.2774,0.1289,0.5019,0.1933,1.1787,0.1933,2.0302,0,1.0078-0.1035,1.8213-0.3105,2.4405-0.2071,0.6191-0.5166,1.0976-0.9287,1.4355s-0.9327,0.5068-1.5616,0.5068c-0.8281,0-1.4785-0.2968-1.9511-0.8906-0.5664-0.7148-0.8496-1.8789-0.8496-3.4922zm1.0839,0c0,1.4102,0.1651,2.3487,0.4952,2.8155,0.33,0.4668,0.7373,0.7002,1.2216,0.7002,0.4844,0,0.8916-0.2344,1.2217-0.7032,0.3301-0.4687,0.4951-1.4062,0.4951-2.8125,0-1.414-0.165-2.3535-0.4951-2.8183-0.3301-0.4649-0.7412-0.6969-1.2334-0.6969-0.4844,0-0.8711,0.2047-1.1601,0.6148-0.3633,0.5235-0.545,1.4903-0.545,2.9004z"/>
  </g>
  <line id="line72" stroke-width="1" y2="-184.89" y1="-184.89" stroke="black" x2="4.48" x1="-4.48"/>
  <g id="text74" style="text-anchor:end;" font-size="12px">
   <path id="path3105" d="m-29.008-184.89-1.0546,0,0-6.721c-0.254,0.243-0.587,0.485-0.9991,0.727s-0.7822,0.424-1.1103,0.545v-1.02c0.5898-0.277,1.1054-0.613,1.5469-1.007,0.4414-0.395,0.7539-0.778,0.9375-1.149h0.6796z"/>
   <path id="path3107" d="m-26.301-189.12c0-1.016,0.1045-1.833,0.3134-2.452,0.209-0.619,0.5196-1.097,0.9317-1.433s0.9307-0.504,1.5557-0.504c0.4609,0,0.8652,0.09,1.2128,0.278,0.3477,0.186,0.6348,0.454,0.8614,0.803,0.2265,0.35,0.4043,0.776,0.5332,1.278,0.1289,0.501,0.1933,1.178,0.1933,2.03,0,1.008-0.1035,1.821-0.3105,2.44s-0.5166,1.098-0.9287,1.436-0.9326,0.507-1.5615,0.507c-0.8282,0-1.4786-0.297-1.9512-0.891-0.5664-0.715-0.8496-1.879-0.8496-3.492zm1.084,0c0,1.41,0.165,2.348,0.4951,2.815,0.33,0.467,0.7373,0.7,1.2217,0.7,0.4843,0,0.8916-0.234,1.2216-0.703,0.3301-0.468,0.4951-1.406,0.4952-2.812-0.0001-1.414-0.1651-2.354-0.4952-2.819-0.33-0.464-0.7412-0.697-1.2334-0.697-0.4843,0-0.8711,0.205-1.1601,0.615-0.3633,0.524-0.5449,1.491-0.5449,2.901z"/>
   <path id="path3109" d="m-19.622-189.12c0-1.016,0.1045-1.833,0.3134-2.452,0.209-0.619,0.5196-1.097,0.9317-1.433s0.9306-0.504,1.5556-0.504c0.461,0,0.8653,0.09,1.2129,0.278,0.3477,0.186,0.6348,0.454,0.8614,0.803,0.2265,0.35,0.4043,0.776,0.5332,1.278,0.1289,0.501,0.1933,1.178,0.1933,2.03,0,1.008-0.1035,1.821-0.3105,2.44-0.2071,0.619-0.5166,1.098-0.9287,1.436s-0.9327,0.507-1.5616,0.507c-0.8281,0-1.4785-0.297-1.9511-0.891-0.5664-0.715-0.8496-1.879-0.8496-3.492zm1.0839,0c0,1.41,0.1651,2.348,0.4952,2.815,0.33,0.467,0.7373,0.7,1.2216,0.7,0.4844,0,0.8916-0.234,1.2217-0.703,0.3301-0.468,0.4951-1.406,0.4951-2.812,0-1.414-0.165-2.354-0.4951-2.819-0.3301-0.464-0.7412-0.697-1.2334-0.697-0.4844,0-0.8711,0.205-1.1601,0.615-0.3633,0.524-0.545,1.491-0.545,2.901z"/>
  </g>
  <line id="line76" stroke-width="1" y2="-277.33" y1="-277.33" stroke="black" x2="4.48" x1="-4.48"/>
  <g id="text78" style="text-anchor:end;" font-size="12px">
   <path id="path3098" d="m-29.008-277.33-1.0546,0,0-6.721c-0.254,0.242-0.587,0.484-0.9991,0.727-0.4121,0.242-0.7822,0.423-1.1103,0.544v-1.019c0.5898-0.277,1.1054-0.613,1.5469-1.008,0.4414-0.394,0.7539-0.777,0.9375-1.148h0.6796z"/>
   <path id="path3100" d="m-26.301-279.58,1.1074-0.09c0.082,0.539,0.2725,0.944,0.5713,1.216,0.2988,0.271,0.6592,0.407,1.081,0.407,0.5078,0,0.9375-0.191,1.2891-0.574s0.5273-0.891,0.5273-1.524c0-0.601-0.1689-1.076-0.5068-1.424-0.3379-0.347-0.7803-0.521-1.3271-0.521-0.3399,0-0.6465,0.08-0.92,0.231-0.2734,0.155-0.4882,0.355-0.6445,0.601l-0.9902-0.129,0.832-4.412h4.2715v1.008h-3.4277l-0.4629,2.308c0.5156-0.359,1.0566-0.539,1.623-0.539,0.75,0,1.3828,0.26,1.8984,0.78,0.5157,0.519,0.7735,1.187,0.7735,2.004,0,0.777-0.2266,1.449-0.6797,2.015-0.5508,0.695-1.3027,1.043-2.2559,1.043-0.7812,0-1.4189-0.219-1.913-0.656-0.4942-0.438-0.7764-1.018-0.8467-1.74z"/>
   <path id="path3102" d="m-19.622-281.57c0-1.015,0.1045-1.833,0.3134-2.452,0.209-0.619,0.5196-1.096,0.9317-1.432s0.9306-0.504,1.5556-0.504c0.461,0,0.8653,0.09,1.2129,0.278,0.3477,0.186,0.6348,0.453,0.8614,0.803,0.2265,0.349,0.4043,0.775,0.5332,1.277s0.1933,1.179,0.1933,2.03c0,1.008-0.1035,1.822-0.3105,2.441-0.2071,0.619-0.5166,1.097-0.9287,1.435s-0.9327,0.507-1.5616,0.507c-0.8281,0-1.4785-0.297-1.9511-0.89-0.5664-0.715-0.8496-1.879-0.8496-3.493zm1.0839,0c0,1.41,0.1651,2.349,0.4952,2.816,0.33,0.467,0.7373,0.7,1.2216,0.7,0.4844,0,0.8916-0.234,1.2217-0.703s0.4951-1.406,0.4951-2.813c0-1.414-0.165-2.353-0.4951-2.818s-0.7412-0.697-1.2334-0.697c-0.4844,0-0.8711,0.205-1.1601,0.615-0.3633,0.523-0.545,1.49-0.545,2.9z"/>
  </g>
  <line id="line80" stroke-width="2" x2="409.6" stroke="black"/>
  <line id="line82" stroke-width="2" y2="-332.8" x2="0" stroke="black"/>
  <g id="text84" style="text-anchor:middle;">
   <path id="path3120" d="m218.32-353.73,1.137,0.287c-0.238,0.934-0.667,1.646-1.286,2.136s-1.376,0.735-2.271,0.735c-0.925,0-1.678-0.188-2.258-0.565-0.581-0.377-1.022-0.923-1.325-1.638-0.302-0.714-0.454-1.482-0.454-2.302,0-0.895,0.171-1.675,0.513-2.341s0.828-1.172,1.459-1.518c0.631-0.345,1.325-0.518,2.083-0.518,0.859,0,1.582,0.218,2.168,0.656,0.586,0.437,0.994,1.053,1.224,1.846l-1.119,0.263c-0.199-0.625-0.488-1.08-0.867-1.365s-0.855-0.428-1.43-0.428c-0.66,0-1.211,0.159-1.655,0.475-0.443,0.316-0.755,0.741-0.934,1.274-0.18,0.534-0.27,1.083-0.27,1.65,0,0.73,0.107,1.368,0.319,1.913,0.213,0.545,0.544,0.952,0.994,1.222,0.449,0.269,0.935,0.404,1.459,0.404,0.636,0,1.175-0.184,1.617-0.551,0.441-0.367,0.74-0.912,0.896-1.635z"/>
   <path id="path3122" d="m220.34-353.83c0-1.153,0.32-2.006,0.961-2.561,0.535-0.461,1.187-0.691,1.957-0.691,0.855,0,1.554,0.28,2.097,0.841,0.543,0.56,0.815,1.335,0.815,2.323,0,0.801-0.12,1.43-0.36,1.889-0.241,0.459-0.59,0.816-1.049,1.07s-0.96,0.381-1.503,0.381c-0.871,0-1.575-0.28-2.112-0.838-0.538-0.559-0.806-1.364-0.806-2.414zm1.084,0c0,0.797,0.174,1.393,0.521,1.79,0.348,0.396,0.785,0.594,1.313,0.594,0.523,0,0.959-0.199,1.306-0.597,0.348-0.399,0.522-1.006,0.522-1.822,0-0.77-0.175-1.353-0.524-1.75-0.35-0.396-0.785-0.594-1.304-0.594-0.528,0-0.965,0.197-1.313,0.592-0.347,0.394-0.521,0.99-0.521,1.787z"/>
   <path id="path3124" d="m227.02-353.83c0-1.153,0.32-2.006,0.96-2.561,0.536-0.461,1.188-0.691,1.957-0.691,0.856,0,1.555,0.28,2.098,0.841,0.543,0.56,0.815,1.335,0.815,2.323,0,0.801-0.121,1.43-0.361,1.889s-0.59,0.816-1.049,1.07-0.96,0.381-1.503,0.381c-0.871,0-1.575-0.28-2.112-0.838-0.537-0.559-0.805-1.364-0.805-2.414zm1.084,0c0,0.797,0.173,1.393,0.521,1.79,0.348,0.396,0.785,0.594,1.312,0.594,0.524,0,0.959-0.199,1.307-0.597,0.348-0.399,0.522-1.006,0.522-1.822,0-0.77-0.175-1.353-0.525-1.75-0.349-0.396-0.784-0.594-1.304-0.594-0.527,0-0.964,0.197-1.312,0.592-0.348,0.394-0.521,0.99-0.521,1.787z"/>
   <path id="path3126" d="m234.08-350.72,0-6.223,0.949,0,0,0.944c0.242-0.442,0.466-0.733,0.671-0.873,0.205-0.141,0.431-0.211,0.677-0.211,0.355,0,0.717,0.113,1.084,0.34l-0.363,0.978c-0.258-0.152-0.516-0.228-0.774-0.228-0.23,0-0.437,0.07-0.621,0.208-0.183,0.138-0.314,0.331-0.392,0.577-0.118,0.375-0.176,0.785-0.176,1.23v3.258z"/>
   <path id="path3128" d="m242.14-350.72,0-0.785c-0.395,0.617-0.975,0.926-1.741,0.926-0.496,0-0.952-0.137-1.368-0.411-0.416-0.273-0.738-0.655-0.966-1.145-0.229-0.49-0.343-1.054-0.343-1.69,0-0.622,0.103-1.185,0.31-1.691s0.518-0.893,0.932-1.163,0.877-0.404,1.389-0.404c0.375,0,0.709,0.08,1.002,0.237,0.293,0.158,0.531,0.364,0.714,0.618v-3.082h1.049v8.59zm-3.334-3.105c0,0.796,0.168,1.392,0.504,1.787,0.336,0.394,0.732,0.591,1.189,0.591,0.461,0,0.853-0.188,1.175-0.565s0.483-0.952,0.483-1.726c0-0.851-0.164-1.476-0.492-1.875-0.328-0.398-0.732-0.597-1.213-0.597-0.469,0-0.86,0.191-1.175,0.574-0.314,0.383-0.471,0.986-0.471,1.811z"/>
   <path id="path3130" d="m244.78-358.1,0-1.213,1.055,0,0,1.213zm0,7.377,0-6.223,1.055,0,0,6.223z"/>
   <path id="path3132" d="m247.45-350.72,0-6.223,0.949,0,0,0.885c0.457-0.683,1.118-1.025,1.981-1.025,0.375,0,0.72,0.07,1.034,0.202,0.314,0.135,0.55,0.311,0.706,0.53s0.266,0.479,0.328,0.779c0.04,0.196,0.06,0.538,0.06,1.026v3.826h-1.055v-3.785c0-0.43-0.04-0.751-0.123-0.964-0.08-0.213-0.227-0.383-0.436-0.51s-0.455-0.19-0.736-0.19c-0.449,0-0.837,0.142-1.163,0.428-0.326,0.285-0.489,0.826-0.489,1.623v3.398z"/>
   <path id="path3134" d="m258.19-351.49c-0.39,0.332-0.766,0.567-1.128,0.704-0.361,0.136-0.749,0.205-1.163,0.205-0.683,0-1.209-0.167-1.576-0.501s-0.551-0.761-0.551-1.281c0-0.304,0.07-0.583,0.208-0.835,0.139-0.252,0.321-0.454,0.545-0.606,0.225-0.152,0.478-0.268,0.759-0.346,0.207-0.05,0.52-0.107,0.938-0.158,0.851-0.101,1.478-0.223,1.881-0.363v-0.276c0-0.429-0.1-0.732-0.298-0.908-0.27-0.238-0.67-0.357-1.202-0.357-0.496,0-0.862,0.09-1.098,0.261-0.237,0.173-0.411,0.481-0.525,0.922l-1.031-0.14c0.09-0.442,0.248-0.798,0.463-1.07,0.215-0.271,0.525-0.48,0.932-0.627,0.406-0.146,0.877-0.219,1.412-0.219,0.531,0,0.963,0.06,1.295,0.187,0.332,0.125,0.576,0.282,0.732,0.472,0.156,0.189,0.266,0.429,0.328,0.718,0.03,0.179,0.05,0.504,0.05,0.972v1.407c0,0.98,0.02,1.6,0.07,1.86,0.04,0.26,0.134,0.509,0.267,0.747h-1.102c-0.109-0.219-0.179-0.475-0.211-0.768zm-0.09-2.355c-0.383,0.156-0.958,0.289-1.723,0.398-0.434,0.06-0.74,0.133-0.92,0.211-0.18,0.08-0.318,0.193-0.416,0.343-0.1,0.15-0.147,0.317-0.147,0.501,0,0.281,0.107,0.516,0.32,0.703,0.213,0.188,0.524,0.281,0.934,0.281,0.407,0,0.768-0.09,1.084-0.266,0.317-0.178,0.549-0.421,0.698-0.73,0.113-0.238,0.17-0.589,0.17-1.054z"/>
   <path id="path3136" d="m263.11-351.66,0.153,0.931c-0.297,0.06-0.563,0.09-0.797,0.09-0.383,0-0.68-0.06-0.891-0.182-0.211-0.121-0.359-0.28-0.445-0.477-0.09-0.197-0.129-0.612-0.129-1.245v-3.58h-0.774v-0.821h0.774v-1.541l1.049-0.632v2.173h1.06v0.821h-1.06v3.638c0,0.301,0.02,0.494,0.06,0.58,0.04,0.09,0.1,0.155,0.182,0.205,0.08,0.05,0.204,0.08,0.36,0.08,0.118,0,0.272-0.01,0.463-0.04z"/>
   <path id="path3138" d="m268.4-352.72,1.09,0.135c-0.172,0.637-0.49,1.131-0.955,1.482-0.465,0.352-1.058,0.528-1.781,0.528-0.91,0-1.632-0.281-2.165-0.841-0.533-0.561-0.8-1.347-0.8-2.359,0-1.046,0.27-1.859,0.809-2.437s1.238-0.867,2.097-0.867c0.832,0,1.512,0.283,2.039,0.849,0.528,0.567,0.791,1.364,0.791,2.391v0.281h-4.641c0.04,0.684,0.232,1.207,0.58,1.571,0.348,0.363,0.781,0.544,1.301,0.544,0.387,0,0.717-0.101,0.99-0.304s0.49-0.528,0.65-0.973zm-3.462-1.705,3.474,0c-0.05-0.523-0.18-0.916-0.398-1.178-0.336-0.406-0.772-0.609-1.307-0.609-0.484,0-0.892,0.162-1.222,0.486s-0.512,0.758-0.547,1.301z"/>
   <path id="path3140" d="m274.28-350.72,0-8.59,3.24,0c0.571,0,1.006,0.03,1.307,0.08,0.422,0.07,0.776,0.204,1.061,0.402,0.285,0.197,0.514,0.473,0.688,0.829,0.174,0.355,0.261,0.746,0.261,1.172,0,0.73-0.233,1.348-0.697,1.854-0.465,0.506-1.305,0.759-2.52,0.759h-2.203v3.492zm1.137-4.506,2.221,0c0.734,0,1.256-0.137,1.564-0.41,0.309-0.273,0.463-0.658,0.463-1.154,0-0.36-0.09-0.667-0.272-0.923s-0.421-0.425-0.718-0.507c-0.192-0.05-0.545-0.08-1.061-0.08h-2.197z"/>
   <path id="path3142" d="m286.22-351.49c-0.391,0.332-0.767,0.567-1.128,0.704-0.362,0.136-0.749,0.205-1.163,0.205-0.684,0-1.209-0.167-1.577-0.501-0.367-0.334-0.55-0.761-0.55-1.281,0-0.304,0.07-0.583,0.208-0.835s0.32-0.454,0.545-0.606c0.224-0.152,0.477-0.268,0.758-0.346,0.207-0.05,0.52-0.107,0.938-0.158,0.851-0.101,1.478-0.223,1.881-0.363v-0.276c0-0.429-0.1-0.732-0.299-0.908-0.27-0.238-0.67-0.357-1.201-0.357-0.496,0-0.863,0.09-1.099,0.261-0.236,0.173-0.411,0.481-0.524,0.922l-1.032-0.14c0.09-0.442,0.248-0.798,0.463-1.07,0.215-0.271,0.526-0.48,0.932-0.627,0.406-0.146,0.877-0.219,1.412-0.219,0.531,0,0.963,0.06,1.295,0.187,0.332,0.125,0.576,0.282,0.732,0.472,0.157,0.189,0.266,0.429,0.328,0.718,0.04,0.179,0.05,0.504,0.05,0.972v1.407c0,0.98,0.02,1.6,0.07,1.86,0.04,0.26,0.133,0.509,0.266,0.747h-1.101c-0.11-0.219-0.18-0.475-0.211-0.768zm-0.09-2.355c-0.383,0.156-0.957,0.289-1.723,0.398-0.433,0.06-0.74,0.133-0.92,0.211-0.18,0.08-0.318,0.193-0.416,0.343-0.1,0.15-0.146,0.317-0.146,0.501,0,0.281,0.106,0.516,0.319,0.703,0.213,0.188,0.524,0.281,0.935,0.281,0.406,0,0.767-0.09,1.084-0.266,0.316-0.178,0.548-0.421,0.697-0.73,0.113-0.238,0.17-0.589,0.17-1.054z"/>
   <path id="path3144" d="m288.85-358.1,0-1.213,1.054,0,0,1.213zm0,7.377,0-6.223,1.054,0,0,6.223z"/>
   <path id="path3146" d="m291.5-350.72,0-6.223,0.949,0,0,0.944c0.242-0.442,0.466-0.733,0.671-0.873,0.205-0.141,0.431-0.211,0.677-0.211,0.355,0,0.717,0.113,1.084,0.34l-0.363,0.978c-0.258-0.152-0.516-0.228-0.774-0.228-0.23,0-0.437,0.07-0.621,0.208s-0.314,0.331-0.393,0.577c-0.117,0.375-0.175,0.785-0.175,1.23v3.258z"/>
   <path id="path3148" d="m295.1-352.58,1.043-0.164c0.06,0.417,0.221,0.738,0.489,0.96,0.267,0.223,0.641,0.334,1.122,0.334,0.484,0,0.844-0.1,1.078-0.295,0.234-0.198,0.352-0.429,0.352-0.695,0-0.238-0.104-0.426-0.311-0.562-0.144-0.09-0.504-0.213-1.078-0.358-0.774-0.195-1.31-0.364-1.608-0.507-0.299-0.142-0.526-0.339-0.68-0.591s-0.232-0.531-0.232-0.835c0-0.278,0.06-0.534,0.191-0.771,0.127-0.236,0.3-0.432,0.518-0.589,0.164-0.121,0.388-0.223,0.671-0.307,0.283-0.08,0.587-0.126,0.911-0.126,0.489,0,0.917,0.07,1.287,0.211,0.369,0.14,0.641,0.331,0.817,0.571s0.297,0.561,0.363,0.964l-1.031,0.14c-0.05-0.32-0.183-0.57-0.407-0.75-0.225-0.179-0.542-0.269-0.952-0.269-0.485,0-0.831,0.08-1.038,0.24s-0.31,0.348-0.31,0.563c0,0.136,0.04,0.259,0.129,0.369,0.09,0.113,0.221,0.207,0.404,0.281,0.106,0.04,0.416,0.129,0.932,0.27,0.746,0.199,1.266,0.362,1.561,0.489s0.527,0.311,0.695,0.554c0.168,0.242,0.252,0.543,0.252,0.902,0,0.351-0.103,0.682-0.308,0.993s-0.501,0.551-0.888,0.721c-0.386,0.17-0.824,0.255-1.312,0.255-0.809,0-1.425-0.168-1.849-0.504s-0.694-0.834-0.811-1.494z"/>
  </g>
 </g>
</svg>
