<?xml version="1.0" encoding="UTF-8" standalone="no"?>
<!-- Created with Inkscape (http://www.inkscape.org/) -->

<svg
   xmlns:dc="http://purl.org/dc/elements/1.1/"
   xmlns:cc="http://creativecommons.org/ns#"
   xmlns:rdf="http://www.w3.org/1999/02/22-rdf-syntax-ns#"
   xmlns:svg="http://www.w3.org/2000/svg"
   xmlns="http://www.w3.org/2000/svg"
   version="1.1"
   width="540"
   height="540"
   id="svg2"
   xml:space="preserve"><metadata
     id="metadata8"><rdf:RDF><cc:Work
         rdf:about=""><dc:format>image/svg+xml</dc:format><dc:type
           rdf:resource="http://purl.org/dc/dcmitype/StillImage" /><dc:title></dc:title></cc:Work></rdf:RDF></metadata><defs
     id="defs6" /><g
     transform="matrix(1.25,0,0,-1.25,0,540)"
     id="g10"><g
       transform="scale(0.1,0.1)"
       id="g12"><path
         d="m 1620,3420 c 0,397.64 -322.36,720 -720,720 -397.645,0 -720,-322.36 -720,-720 0,-397.64 322.355,-720 720,-720 397.64,0 720,322.36 720,720"
         id="path14"
         style="fill:#ffffff;fill-opacity:1;fill-rule:nonzero;stroke:none" /><path
         d="m 900,2700 0,0 c 397.64,0 720,322.36 720,720 0,397.64 -322.36,720 -720,720 l 0,-1440"
         id="path16"
         style="fill:#000000;fill-opacity:1;fill-rule:nonzero;stroke:none" /><path
         d="m 1260,3780 c 0,198.82 -161.18,360 -360,360 -198.824,0 -360,-161.18 -360,-360 0,-198.82 161.176,-360 360,-360 198.82,0 360,161.18 360,360"
         id="path18"
         style="fill:#ffffff;fill-opacity:1;fill-rule:nonzero;stroke:none" /><path
         d="m 1260,3060 c 0,198.82 -161.18,360 -360,360 -198.824,0 -360,-161.18 -360,-360 0,-198.82 161.176,-360 360,-360 198.82,0 360,161.18 360,360"
         id="path20"
         style="fill:#000000;fill-opacity:1;fill-rule:nonzero;stroke:none" /><path
         d="m 1044,3780 c 0,79.53 -64.473,144 -144,144 -79.527,0 -144,-64.47 -144,-144 0,-79.53 64.473,-144 144,-144 79.527,0 144,64.47 144,144"
         id="path22"
         style="fill:#000000;fill-opacity:1;fill-rule:nonzero;stroke:none" /><path
         d="m 1044,3060 c 0,79.53 -64.473,144 -144,144 -79.527,0 -144,-64.47 -144,-144 0,-79.53 64.473,-144 144,-144 79.527,0 144,64.47 144,144"
         id="path24"
         style="fill:#ffffff;fill-opacity:1;fill-rule:nonzero;stroke:none" /><path
         d="m 1620,3420 c 0,397.64 -322.36,720 -720,720 -397.645,0 -720,-322.36 -720,-720 0,-397.64 322.355,-720 720,-720 397.64,0 720,322.36 720,720 z"
         id="path26"
         style="fill:none;stroke:#808080;stroke-width:23;stroke-linecap:round;stroke-linejoin:round;stroke-miterlimit:10;stroke-opacity:1;stroke-dasharray:none" /><path
         d="m 4140,1620 c 0,795.29 -644.71,1440 -1440,1440 -795.29,0 -1440,-644.71 -1440,-1440 0,-795.289 644.71,-1440 1440,-1440 795.29,0 1440,644.711 1440,1440"
         id="path28"
         style="fill:#ffffff;fill-opacity:1;fill-rule:nonzero;stroke:none" /><path
         d="m 2700,180 0,0 c 795.29,0 1440,644.711 1440,1440 0,795.29 -644.71,1440 -1440,1440 l 0,-2880"
         id="path30"
         style="fill:#000000;fill-opacity:1;fill-rule:nonzero;stroke:none" /><path
         d="m 3420,2340 c 0,397.64 -322.36,720 -720,720 -397.64,0 -720,-322.36 -720,-720 0,-397.64 322.36,-720 720,-720 397.64,0 720,322.36 720,720"
         id="path32"
         style="fill:#ffffff;fill-opacity:1;fill-rule:nonzero;stroke:none" /><path
         d="m 3420,900 c 0,397.64 -322.36,720 -720,720 -397.64,0 -720,-322.36 -720,-720 0,-397.645 322.36,-720 720,-720 397.64,0 720,322.355 720,720"
         id="path34"
         style="fill:#000000;fill-opacity:1;fill-rule:nonzero;stroke:none" /><path
         d="m 2988,2340 c 0,159.06 -128.94,288 -288,288 -159.06,0 -288,-128.94 -288,-288 0,-159.06 128.94,-288 288,-288 159.06,0 288,128.94 288,288"
         id="path36"
         style="fill:#000000;fill-opacity:1;fill-rule:nonzero;stroke:none" /><path
         d="m 2988,900 c 0,159.06 -128.94,288 -288,288 -159.06,0 -288,-128.94 -288,-288 0,-159.059 128.94,-288 288,-288 159.06,0 288,128.941 288,288"
         id="path38"
         style="fill:#ffffff;fill-opacity:1;fill-rule:nonzero;stroke:none" /><path
         d="m 4140,1620 c 0,795.29 -644.71,1440 -1440,1440 -795.29,0 -1440,-644.71 -1440,-1440 0,-795.289 644.71,-1440 1440,-1440 795.29,0 1440,644.711 1440,1440 z"
         id="path40"
         style="fill:none;stroke:#808080;stroke-width:23;stroke-linecap:round;stroke-linejoin:round;stroke-miterlimit:10;stroke-opacity:1;stroke-dasharray:none" /></g></g></svg>
